M48
INCH,TZ
FMAT,2
ICI,OFF
T01C.06
T02C.052
T03C.042
T04C.038
T05C.035
T06C.028
T07C.02
T08C.125
%
T01
G05
X1010Y14216
X1310Y17216
X8520Y11116
X7520Y11116
X9520Y11116
T02
X10510Y5216
X10510Y9216
T03
X3760Y6316
X3760Y10316
X3760Y13466
X3760Y17466
X5510Y11016
X5510Y7016
X13260Y7466
X17260Y7466
T04
X2060Y3966
X2060Y4966
X4610Y3566
X4610Y2566
X6660Y1166
X6660Y5066
X6510Y15216
X6510Y16216
X8210Y7916
X8210Y6916
X8510Y15216
X8510Y16216
X8510Y17216
X8510Y18216
X12360Y6216
X12360Y5216
X11510Y15216
X11510Y16216
X11510Y17216
X11510Y18216
X14010Y15216
X14010Y14216
T05
X9510Y13466
X10510Y13466
X10010Y13966
T06
X2200Y10416
X2200Y12416
X13260Y12466
X13260Y8866
X12810Y17216
X16410Y17216
T07
X6860Y6916
X6510Y14366
X7810Y13516
T08
X1010Y966
X1010Y18966
X19010Y18966
X19010Y966
M30
