G04 ================== begin FILE IDENTIFICATION RECORD ==================*
G04 Layout Name:  Desulfator.brd*
G04 Film Name:    desulfator_v1SSB*
G04 File Format:  Gerber RS274X*
G04 File Origin:  Cadence Allegro 16.3-S018*
G04 Origin Date:  Tue Nov 30 14:43:08 2010*
G04 *
G04 Layer:  REF DES/SILKSCREEN_BOTTOM*
G04 Layer:  PACKAGE GEOMETRY/SILKSCREEN_BOTTOM*
G04 Layer:  BOARD GEOMETRY/SILKSCREEN_BOTTOM*
G04 *
G04 Offset:    (0.0 0.0)*
G04 Mirror:    No*
G04 Mode:      Positive*
G04 Rotation:  0*
G04 FullContactRelief:  No*
G04 UndefLineWidth:     0.0*
G04 ================== end FILE IDENTIFICATION RECORD ====================*
%FSLAX25Y25*MOIN*%
%IR0*IPPOS*OFA0.00000B0.00000*MIA0B0*SFA1.00000B1.00000*%
%ADD10C,.005*%
G75*
%LPD*%
G75*
G54D10*
G01X625570Y1188170D02*
X626080Y1187750D01*
X626650Y1187500D01*
X627150D01*
X627660Y1187750D01*
X628040Y1188170D01*
X628230Y1188750D01*
X628100Y1189330D01*
X627790Y1189830D01*
X627220Y1190170D01*
X626460Y1190330D01*
X626010Y1190670D01*
X625820Y1191250D01*
X625950Y1191830D01*
X626270Y1192250D01*
X626710Y1192500D01*
X627150D01*
X627600Y1192330D01*
X627980Y1191920D01*
G01X630670Y1188170D02*
X631180Y1187750D01*
X631750Y1187500D01*
X632250D01*
X632760Y1187750D01*
X633140Y1188170D01*
X633330Y1188750D01*
X633200Y1189330D01*
X632890Y1189830D01*
X632320Y1190170D01*
X631560Y1190330D01*
X631110Y1190670D01*
X630920Y1191250D01*
X631050Y1191830D01*
X631370Y1192250D01*
X631810Y1192500D01*
X632250D01*
X632700Y1192330D01*
X633080Y1191920D01*
G01X637610Y1190170D02*
X637860Y1190420D01*
X638050Y1190830D01*
X638180Y1191420D01*
X638050Y1191920D01*
X637800Y1192250D01*
X637350Y1192500D01*
X635640D01*
Y1187500D01*
X637730D01*
X638180Y1187830D01*
X638430Y1188330D01*
X638560Y1188920D01*
X638430Y1189500D01*
X638050Y1190000D01*
X637610Y1190170D01*
X635640D01*
M02*
