G04 ================== begin FILE IDENTIFICATION RECORD ==================*
G04 Layout Name:  Desulfator.brd*
G04 Film Name:    desulfator_v1SST*
G04 File Format:  Gerber RS274X*
G04 File Origin:  Cadence Allegro 16.3-S018*
G04 Origin Date:  Tue Nov 30 18:08:56 2010*
G04 *
G04 Layer:  REF DES/SILKSCREEN_TOP*
G04 Layer:  PACKAGE GEOMETRY/SILKSCREEN_TOP*
G04 Layer:  BOARD GEOMETRY/SILKSCREEN_TOP*
G04 *
G04 Offset:    (0.0 0.0)*
G04 Mirror:    No*
G04 Mode:      Positive*
G04 Rotation:  0*
G04 FullContactRelief:  No*
G04 UndefLineWidth:     0.0*
G04 ================== end FILE IDENTIFICATION RECORD ====================*
%FSLAX25Y25*MOIN*%
%IR0*IPPOS*OFA0.00000B0.00000*MIA0B0*SFA1.00000B1.00000*%
%ADD10C,.005*%
G75*
%LPD*%
G75*
G54D10*
G01X608070Y1188170D02*
X608580Y1187750D01*
X609150Y1187500D01*
X609650D01*
X610160Y1187750D01*
X610540Y1188170D01*
X610730Y1188750D01*
X610600Y1189330D01*
X610290Y1189830D01*
X609720Y1190170D01*
X608960Y1190330D01*
X608510Y1190670D01*
X608320Y1191250D01*
X608450Y1191830D01*
X608770Y1192250D01*
X609210Y1192500D01*
X609650D01*
X610100Y1192330D01*
X610480Y1191920D01*
G01X613170Y1188170D02*
X613680Y1187750D01*
X614250Y1187500D01*
X614750D01*
X615260Y1187750D01*
X615640Y1188170D01*
X615830Y1188750D01*
X615700Y1189330D01*
X615390Y1189830D01*
X614820Y1190170D01*
X614060Y1190330D01*
X613610Y1190670D01*
X613420Y1191250D01*
X613550Y1191830D01*
X613870Y1192250D01*
X614310Y1192500D01*
X614750D01*
X615200Y1192330D01*
X615580Y1191920D01*
G01X619600Y1192500D02*
Y1187500D01*
G01X618140Y1192500D02*
X621060D01*
G01X676180Y1240000D02*
Y1245000D01*
X677770D01*
X678270Y1244750D01*
X678590Y1244420D01*
X678720Y1243750D01*
X678590Y1243080D01*
X678210Y1242670D01*
X677770Y1242420D01*
X676180D01*
G01X677770D02*
X678720Y1240000D01*
G01X682550D02*
Y1245000D01*
X681790Y1244000D01*
G01Y1240000D02*
X683310D01*
G01X713680Y1267500D02*
Y1272500D01*
X715270D01*
X715770Y1272250D01*
X716090Y1271920D01*
X716220Y1271250D01*
X716090Y1270580D01*
X715710Y1270170D01*
X715270Y1269920D01*
X713680D01*
G01X715270D02*
X716220Y1267500D01*
G01X718850Y1271670D02*
X719230Y1272170D01*
X719670Y1272420D01*
X720180Y1272500D01*
X720810Y1272330D01*
X721250Y1271920D01*
X721380Y1271420D01*
X721320Y1270920D01*
X721060Y1270500D01*
X719800Y1269670D01*
X719230Y1269080D01*
X718850Y1268250D01*
X718720Y1267500D01*
X721380D01*
G01X694380Y1332000D02*
Y1337000D01*
X695970D01*
X696470Y1336750D01*
X696790Y1336420D01*
X696920Y1335750D01*
X696790Y1335080D01*
X696410Y1334670D01*
X695970Y1334420D01*
X694380D01*
G01X695970D02*
X696920Y1332000D01*
G01X699360Y1333000D02*
X699740Y1332420D01*
X700240Y1332080D01*
X700810Y1332000D01*
X701320Y1332080D01*
X701830Y1332500D01*
X702140Y1333000D01*
X702210Y1333500D01*
X702080Y1334080D01*
X701640Y1334500D01*
X701190Y1334670D01*
X700620D01*
G01X701190D02*
X701570Y1334920D01*
X701890Y1335330D01*
X702020Y1335830D01*
X701890Y1336330D01*
X701570Y1336750D01*
X701000Y1337000D01*
X700430Y1336920D01*
X699860Y1336580D01*
G01X740510Y1192500D02*
Y1197500D01*
X741770D01*
X742280Y1197250D01*
X742660Y1196920D01*
X742980Y1196420D01*
X743230Y1195830D01*
X743290Y1195000D01*
X743230Y1194170D01*
X742980Y1193580D01*
X742660Y1193080D01*
X742280Y1192750D01*
X741770Y1192500D01*
X740510D01*
G01X746050Y1194750D02*
X748080D01*
X747890Y1195330D01*
X747570Y1195670D01*
X747130Y1195830D01*
X746680Y1195750D01*
X746300Y1195500D01*
X746050Y1194920D01*
X745920Y1194420D01*
Y1193920D01*
X746050Y1193420D01*
X746370Y1192920D01*
X746750Y1192580D01*
X747190Y1192500D01*
X747630Y1192670D01*
X748080Y1193170D01*
G01X751150Y1193080D02*
X751470Y1192750D01*
X751910Y1192500D01*
X752290D01*
X752670Y1192670D01*
X752920Y1192920D01*
X753050Y1193250D01*
X752990Y1193750D01*
X752730Y1194000D01*
X751590Y1194500D01*
X751340Y1195080D01*
X751470Y1195500D01*
X751720Y1195750D01*
X752100Y1195830D01*
X752480Y1195750D01*
X752860Y1195500D01*
G01X756120Y1195830D02*
Y1193500D01*
X756380Y1192920D01*
X756760Y1192580D01*
X757200Y1192500D01*
X757640Y1192580D01*
X758020Y1192920D01*
X758280Y1193500D01*
G01Y1192500D02*
Y1195830D01*
G01X762300Y1192500D02*
Y1197500D01*
G01X767020Y1192500D02*
Y1196750D01*
X767150Y1197170D01*
X767400Y1197420D01*
X767780Y1197500D01*
X768160Y1197330D01*
X768350Y1196920D01*
G01X767590Y1195500D02*
X766320D01*
G01X773640Y1192500D02*
Y1195830D01*
G01Y1195250D02*
X773390Y1195580D01*
X773010Y1195750D01*
X772560Y1195830D01*
X772120Y1195670D01*
X771740Y1195330D01*
X771490Y1194830D01*
X771360Y1194170D01*
X771490Y1193500D01*
X771740Y1193000D01*
X772120Y1192670D01*
X772560Y1192500D01*
X773010Y1192580D01*
X773390Y1192830D01*
X773640Y1193170D01*
G01X777600Y1197500D02*
Y1192500D01*
G01X776710Y1195830D02*
X778490D01*
G01X782700Y1192500D02*
X782320Y1192580D01*
X781940Y1192920D01*
X781690Y1193500D01*
X781560Y1194170D01*
X781690Y1194830D01*
X781940Y1195420D01*
X782320Y1195750D01*
X782700Y1195830D01*
X783080Y1195750D01*
X783460Y1195420D01*
X783710Y1194830D01*
X783780Y1194170D01*
X783710Y1193500D01*
X783460Y1192920D01*
X783080Y1192580D01*
X782700Y1192500D01*
G01X786910D02*
Y1195830D01*
G01Y1195170D02*
X787230Y1195500D01*
X787550Y1195750D01*
X787990Y1195830D01*
X788310Y1195750D01*
X788690Y1195500D01*
G01X796860Y1195830D02*
X798000Y1192500D01*
X799140Y1195830D01*
G01X803100Y1192500D02*
Y1197500D01*
X802340Y1196500D01*
G01Y1192500D02*
X803860D01*
G01X808200Y1192330D02*
X808070Y1192420D01*
Y1192580D01*
X808200Y1192670D01*
X808330Y1192580D01*
Y1192420D01*
X808200Y1192330D01*
G01X813300Y1197500D02*
X812790Y1197330D01*
X812410Y1196920D01*
X812160Y1196420D01*
X811970Y1195750D01*
X811910Y1195000D01*
X811970Y1194250D01*
X812160Y1193580D01*
X812410Y1193080D01*
X812790Y1192670D01*
X813300Y1192500D01*
X813810Y1192670D01*
X814190Y1193080D01*
X814440Y1193580D01*
X814630Y1194250D01*
X814690Y1195000D01*
X814630Y1195750D01*
X814440Y1196420D01*
X814190Y1196920D01*
X813810Y1197330D01*
X813300Y1197500D01*
G01X743130Y1185000D02*
Y1190000D01*
X744650D01*
X745160Y1189750D01*
X745540Y1189170D01*
X745670Y1188500D01*
X745540Y1187830D01*
X745220Y1187330D01*
X744650Y1187080D01*
X743130D01*
G01X750640Y1185000D02*
Y1188330D01*
G01Y1187750D02*
X750390Y1188080D01*
X750010Y1188250D01*
X749560Y1188330D01*
X749120Y1188170D01*
X748740Y1187830D01*
X748490Y1187330D01*
X748360Y1186670D01*
X748490Y1186000D01*
X748740Y1185500D01*
X749120Y1185170D01*
X749560Y1185000D01*
X750010Y1185080D01*
X750390Y1185330D01*
X750640Y1185670D01*
G01X754600Y1190000D02*
Y1185000D01*
G01X753710Y1188330D02*
X755490D01*
G01X758810Y1185000D02*
Y1188330D01*
G01Y1187670D02*
X759130Y1188000D01*
X759450Y1188250D01*
X759890Y1188330D01*
X760210Y1188250D01*
X760590Y1188000D01*
G01X764800Y1188330D02*
Y1185000D01*
G01Y1189670D02*
X764670Y1189750D01*
Y1189920D01*
X764800Y1190000D01*
X764930Y1189920D01*
Y1189750D01*
X764800Y1189670D01*
G01X770910Y1187920D02*
X770470Y1188250D01*
X770090Y1188330D01*
X769580Y1188170D01*
X769200Y1187830D01*
X768950Y1187250D01*
X768890Y1186670D01*
X768950Y1186080D01*
X769200Y1185580D01*
X769580Y1185170D01*
X770090Y1185000D01*
X770530Y1185170D01*
X770910Y1185500D01*
G01X773920Y1185000D02*
Y1190000D01*
G01X775950Y1188330D02*
X773920Y1186420D01*
G01X774750Y1187170D02*
X776080Y1185000D01*
G01X783870Y1185670D02*
X784380Y1185250D01*
X784950Y1185000D01*
X785450D01*
X785960Y1185250D01*
X786340Y1185670D01*
X786530Y1186250D01*
X786400Y1186830D01*
X786090Y1187330D01*
X785520Y1187670D01*
X784760Y1187830D01*
X784310Y1188170D01*
X784120Y1188750D01*
X784250Y1189330D01*
X784570Y1189750D01*
X785010Y1190000D01*
X785450D01*
X785900Y1189830D01*
X786280Y1189420D01*
G01X789220Y1185000D02*
Y1190000D01*
G01Y1187580D02*
X789540Y1188000D01*
X789860Y1188250D01*
X790360Y1188330D01*
X790740Y1188250D01*
X791190Y1187920D01*
X791380Y1187420D01*
Y1185000D01*
G01X794070Y1183500D02*
X794450Y1183330D01*
X794960Y1183500D01*
X795270Y1183830D01*
X795530Y1184250D01*
X795910Y1185580D01*
X796730Y1188330D01*
G01X794700D02*
X795910Y1185580D01*
G01X799360Y1188330D02*
X800500Y1185000D01*
X801640Y1188330D01*
G01X804650Y1187250D02*
X806680D01*
X806490Y1187830D01*
X806170Y1188170D01*
X805730Y1188330D01*
X805280Y1188250D01*
X804900Y1188000D01*
X804650Y1187420D01*
X804520Y1186920D01*
Y1186420D01*
X804650Y1185920D01*
X804970Y1185420D01*
X805350Y1185080D01*
X805790Y1185000D01*
X806230Y1185170D01*
X806680Y1185670D01*
G01X809810Y1185000D02*
Y1188330D01*
G01Y1187670D02*
X810130Y1188000D01*
X810450Y1188250D01*
X810890Y1188330D01*
X811210Y1188250D01*
X811590Y1188000D01*
G01X814850Y1185580D02*
X815170Y1185250D01*
X815610Y1185000D01*
X815990D01*
X816370Y1185170D01*
X816620Y1185420D01*
X816750Y1185750D01*
X816690Y1186250D01*
X816430Y1186500D01*
X815290Y1187000D01*
X815040Y1187580D01*
X815170Y1188000D01*
X815420Y1188250D01*
X815800Y1188330D01*
X816180Y1188250D01*
X816560Y1188000D01*
G01X730510Y1207500D02*
Y1212500D01*
X731770D01*
X732280Y1212250D01*
X732660Y1211920D01*
X732980Y1211420D01*
X733230Y1210830D01*
X733290Y1210000D01*
X733230Y1209170D01*
X732980Y1208580D01*
X732660Y1208080D01*
X732280Y1207750D01*
X731770Y1207500D01*
X730510D01*
G01X737000D02*
Y1212500D01*
X736240Y1211500D01*
G01Y1207500D02*
X737760D01*
G01X806180Y1257500D02*
Y1262500D01*
X807770D01*
X808270Y1262250D01*
X808590Y1261920D01*
X808720Y1261250D01*
X808590Y1260580D01*
X808210Y1260170D01*
X807770Y1259920D01*
X806180D01*
G01X807770D02*
X808720Y1257500D01*
G01X813310D02*
Y1262500D01*
X810970Y1258920D01*
X814130D01*
G01X793010Y1285000D02*
Y1290000D01*
X794270D01*
X794780Y1289750D01*
X795160Y1289420D01*
X795480Y1288920D01*
X795730Y1288330D01*
X795790Y1287500D01*
X795730Y1286670D01*
X795480Y1286080D01*
X795160Y1285580D01*
X794780Y1285250D01*
X794270Y1285000D01*
X793010D01*
G01X800260D02*
Y1290000D01*
X797920Y1286420D01*
X801080D01*
G01X811340Y1315580D02*
X810960Y1315830D01*
X810520Y1316000D01*
X810010D01*
X809440Y1315750D01*
X809000Y1315330D01*
X808680Y1314830D01*
X808430Y1314000D01*
X808370Y1313250D01*
X808490Y1312500D01*
X808680Y1312000D01*
X809060Y1311500D01*
X809510Y1311170D01*
X809950Y1311000D01*
X810390D01*
X810840Y1311170D01*
X811220Y1311420D01*
X811530Y1311750D01*
G01X815810Y1311000D02*
Y1316000D01*
X813470Y1312420D01*
X816630D01*
G01X808010Y1352500D02*
Y1357500D01*
X809270D01*
X809780Y1357250D01*
X810160Y1356920D01*
X810480Y1356420D01*
X810730Y1355830D01*
X810790Y1355000D01*
X810730Y1354170D01*
X810480Y1353580D01*
X810160Y1353080D01*
X809780Y1352750D01*
X809270Y1352500D01*
X808010D01*
G01X813110Y1353500D02*
X813490Y1352920D01*
X813990Y1352580D01*
X814560Y1352500D01*
X815070Y1352580D01*
X815580Y1353000D01*
X815890Y1353500D01*
X815960Y1354000D01*
X815830Y1354580D01*
X815390Y1355000D01*
X814940Y1355170D01*
X814370D01*
G01X814940D02*
X815320Y1355420D01*
X815640Y1355830D01*
X815770Y1356330D01*
X815640Y1356830D01*
X815320Y1357250D01*
X814750Y1357500D01*
X814180Y1357420D01*
X813610Y1357080D01*
M02*
