G04 ================== begin FILE IDENTIFICATION RECORD ==================*
G04 Layout Name:  Desulfator.brd*
G04 Film Name:    desulfator_v1MECH*
G04 File Format:  Gerber RS274X*
G04 File Origin:  Cadence Allegro 16.3-S018*
G04 Origin Date:  Tue Nov 30 18:08:56 2010*
G04 *
G04 Layer:  BOARD GEOMETRY/DIMENSION*
G04 Layer:  BOARD GEOMETRY/CUT_MARKS*
G04 *
G04 Offset:    (0.0 0.0)*
G04 Mirror:    No*
G04 Mode:      Positive*
G04 Rotation:  0*
G04 FullContactRelief:  No*
G04 UndefLineWidth:     0.0*
G04 ================== end FILE IDENTIFICATION RECORD ====================*
%FSLAX25Y25*MOIN*%
%IR0*IPPOS*OFA0.00000B0.00000*MIA0B0*SFA1.00000B1.00000*%
%ADD10C,.1*%
%ADD11C,.005*%
G75*
%LPD*%
G75*
G54D10*
G01X647500Y1167500D02*
X667500D01*
G01X647500Y1187500D02*
Y1167500D01*
G01X667500Y1377500D02*
X647500D01*
G01D02*
Y1357500D01*
G01X837500Y1167500D02*
X857500D01*
G01Y1377500D02*
X837500D01*
G01X857500Y1167500D02*
Y1187500D01*
G01Y1357500D02*
Y1377500D01*
G54D11*
G01X620250Y1165000D02*
Y1170000D01*
X621900Y1165830D01*
X623550Y1170000D01*
Y1165000D01*
G01X628270D02*
X625730D01*
Y1170000D01*
X628270D01*
G01X627250Y1167580D02*
X625730D01*
G01X633490Y1169580D02*
X633110Y1169830D01*
X632670Y1170000D01*
X632160D01*
X631590Y1169750D01*
X631150Y1169330D01*
X630830Y1168830D01*
X630580Y1168000D01*
X630520Y1167250D01*
X630640Y1166500D01*
X630830Y1166000D01*
X631210Y1165500D01*
X631660Y1165170D01*
X632100Y1165000D01*
X632540D01*
X632990Y1165170D01*
X633370Y1165420D01*
X633680Y1165750D01*
G01X635870Y1165000D02*
Y1170000D01*
G01X638530D02*
Y1165000D01*
G01Y1167500D02*
X635870D01*
M02*
