G04 ================== begin FILE IDENTIFICATION RECORD ==================*
G04 Layout Name:  Desulfator.brd*
G04 Film Name:    desulfator_v1SMB*
G04 File Format:  Gerber RS274X*
G04 File Origin:  Cadence Allegro 16.3-S018*
G04 Origin Date:  Tue Nov 30 14:43:08 2010*
G04 *
G04 Layer:  VIA CLASS/SOLDERMASK_BOTTOM*
G04 Layer:  PIN/SOLDERMASK_BOTTOM*
G04 Layer:  BOARD GEOMETRY/SOLDERMASK_BOTTOM*
G04 *
G04 Offset:    (0.0 0.0)*
G04 Mirror:    No*
G04 Mode:      Positive*
G04 Rotation:  0*
G04 FullContactRelief:  No*
G04 UndefLineWidth:     0.0*
G04 ================== end FILE IDENTIFICATION RECORD ====================*
%FSLAX25Y25*MOIN*%
%IR0*IPPOS*OFA0.00000B0.00000*MIA0B0*SFA1.00000B1.00000*%
%ADD15C,.1*%
%ADD10C,.145*%
%ADD12C,.08*%
%ADD14C,.045*%
%ADD11C,.075*%
%ADD16R,.08X.08*%
%ADD13R,.075X.075*%
%ADD17C,.005*%
G75*
%LPD*%
G75*
G54D10*
X662500Y1182500D03*
Y1362500D03*
X842500Y1182500D03*
Y1362500D03*
G54D11*
X673000Y1222500D03*
Y1212500D03*
X678500Y1253500D03*
Y1293500D03*
X698500Y1198500D03*
Y1208500D03*
X719000Y1223500D03*
X717500Y1335000D03*
Y1325000D03*
X734500Y1242000D03*
Y1252000D03*
X737500Y1325000D03*
Y1335000D03*
Y1345000D03*
X776000Y1225000D03*
Y1235000D03*
X767500Y1325000D03*
Y1335000D03*
Y1345000D03*
Y1355000D03*
X792500Y1315000D03*
Y1325000D03*
G54D12*
X690000Y1236000D03*
Y1276000D03*
Y1307500D03*
Y1347500D03*
X707500Y1243000D03*
Y1283000D03*
X785000Y1261500D03*
Y1247500D03*
X825000D03*
X816500Y1345000D03*
G54D13*
X719000Y1184500D03*
X737500Y1355000D03*
G54D14*
X747500Y1307500D03*
X752500D03*
X757500D03*
G54D15*
Y1225000D03*
Y1265000D03*
G54D16*
X780500Y1345000D03*
X785000Y1297500D03*
G54D17*
G01X625570Y1180670D02*
X626080Y1180250D01*
X626650Y1180000D01*
X627150D01*
X627660Y1180250D01*
X628040Y1180670D01*
X628230Y1181250D01*
X628100Y1181830D01*
X627790Y1182330D01*
X627220Y1182670D01*
X626460Y1182830D01*
X626010Y1183170D01*
X625820Y1183750D01*
X625950Y1184330D01*
X626270Y1184750D01*
X626710Y1185000D01*
X627150D01*
X627600Y1184830D01*
X627980Y1184420D01*
G01X630350Y1180000D02*
Y1185000D01*
X632000Y1180830D01*
X633650Y1185000D01*
Y1180000D01*
G01X637610Y1182670D02*
X637860Y1182920D01*
X638050Y1183330D01*
X638180Y1183920D01*
X638050Y1184420D01*
X637800Y1184750D01*
X637350Y1185000D01*
X635640D01*
Y1180000D01*
X637730D01*
X638180Y1180330D01*
X638430Y1180830D01*
X638560Y1181420D01*
X638430Y1182000D01*
X638050Y1182500D01*
X637610Y1182670D01*
X635640D01*
M02*
