G04 ================== begin FILE IDENTIFICATION RECORD ==================*
G04 Layout Name:  Desulfator.brd*
G04 Film Name:    desulfator_v1BOTTOM*
G04 File Format:  Gerber RS274X*
G04 File Origin:  Cadence Allegro 16.3-S018*
G04 Origin Date:  Tue Nov 30 18:08:56 2010*
G04 *
G04 Layer:  VIA CLASS/BOTTOM*
G04 Layer:  PIN/BOTTOM*
G04 Layer:  ETCH/BOTTOM*
G04 *
G04 Offset:    (0.0 0.0)*
G04 Mirror:    No*
G04 Mode:      Positive*
G04 Rotation:  0*
G04 FullContactRelief:  No*
G04 UndefLineWidth:     0.0*
G04 ================== end FILE IDENTIFICATION RECORD ====================*
%FSLAX25Y25*MOIN*%
%IR0*IPPOS*OFA0.00000B0.00000*MIA0B0*SFA1.00000B1.00000*%
%ADD16C,.03*%
%ADD14C,.04*%
%ADD12C,.06*%
%ADD10C,.025*%
%ADD17C,.08*%
%ADD11C,.09*%
%ADD19C,.055*%
%ADD13C,.065*%
%ADD15R,.06X.06*%
%ADD18R,.055X.055*%
%ADD20C,.005*%
%ADD21C,.012*%
%ADD22C,.05*%
%ADD23R,.0702X.0702*%
%ADD24C,.0704*%
%ADD27R,.0712X.0712*%
%ADD25C,.0714*%
%ADD26C,.0814*%
%ADD28C,.0754*%
G75*
%LPD*%
G75*
G36*
G01X658000Y1198000D02*
Y1230000D01*
X687000D01*
Y1221810D01*
X677630D01*
X677090Y1221270D01*
G02X676420Y1221650I-284J280D01*
G03X673850Y1219080I-3420J850D01*
G02X674230Y1218410I100J-386D01*
G01X672010Y1216190D01*
X671960Y1216170D01*
G03X676670Y1211460I1040J-3670D01*
G01X676690Y1211510D01*
X680370Y1215190D01*
X687000D01*
Y1198000D01*
X658000D01*
G37*
G36*
G01X672510Y1178500D02*
Y1192510D01*
X659500D01*
Y1203500D01*
X844000D01*
Y1192510D01*
X832490D01*
Y1178500D01*
X672510D01*
G37*
G36*
G01X669500Y1222150D02*
Y1219000D01*
X654500D01*
Y1319500D01*
X669500D01*
Y1222840D01*
G03Y1222160I3500J-340D01*
G01Y1222150D01*
G37*
G36*
G01X721000Y1279000D02*
Y1295500D01*
X780000D01*
Y1279000D01*
X751000D01*
G02X750760Y1279720I-1J400D01*
G03X742950Y1286580I-3158J4280D01*
G02X742250I-350J198D01*
G03X732790Y1286280I-4653J-2580D01*
G02X732080Y1286270I-358J175D01*
G03X724950Y1279740I-4478J-2268D01*
G02X724730Y1279000I-213J-339D01*
G01X721000D01*
G37*
G36*
G01X730250Y1279740D02*
G03X732080Y1281730I-2643J4267D01*
G02X732790Y1281720I352J-185D01*
G03X734440Y1279720I4806J2284D01*
G02X734200Y1279000I-239J-320D01*
G01X730470D01*
G02X730250Y1279740I-7J401D01*
G37*
G36*
G01X768490Y1351310D02*
X768540Y1351330D01*
G03X763830Y1356040I-1040J3670D01*
G01X763810Y1355990D01*
X757320Y1349500D01*
X728000D01*
Y1363000D01*
X802000D01*
Y1349500D01*
X767650D01*
G02X767360Y1350180I-4J400D01*
G01X768490Y1351310D01*
G37*
G36*
G01X777000Y1231310D02*
X777140Y1231350D01*
G03Y1238650I-1140J3650D01*
G01X777000Y1238690D01*
Y1321500D01*
X790970D01*
G03X794030I1530J3500D01*
G01X843500D01*
Y1201500D01*
X777000D01*
Y1221310D01*
X777140Y1221350D01*
G03Y1228650I-1140J3650D01*
G01X777000Y1228690D01*
Y1231310D01*
G37*
G36*
G01X801000Y1318000D02*
Y1365000D01*
X832490D01*
Y1352490D01*
X844000D01*
Y1318000D01*
X801000D01*
G37*
%LPC*%
G75*
G54D23*
X719000Y1184500D03*
X737500Y1355000D03*
G54D24*
X698500Y1198500D03*
X792500Y1315000D03*
G54D27*
X785000Y1297500D03*
G54D25*
Y1261500D03*
X816500Y1345000D03*
G54D26*
X785000Y1247500D03*
G54D28*
X825000D03*
%LPD*%
G75*
G54D10*
X662500Y1182500D03*
Y1362500D03*
X842500Y1182500D03*
Y1362500D03*
G54D20*
G01X594910Y1175170D02*
X595160Y1175420D01*
X595350Y1175830D01*
X595480Y1176420D01*
X595350Y1176920D01*
X595100Y1177250D01*
X594650Y1177500D01*
X592940D01*
Y1172500D01*
X595030D01*
X595480Y1172830D01*
X595730Y1173330D01*
X595860Y1173920D01*
X595730Y1174500D01*
X595350Y1175000D01*
X594910Y1175170D01*
X592940D01*
G01X599500Y1172500D02*
X598990Y1172580D01*
X598550Y1172920D01*
X598170Y1173420D01*
X597920Y1174000D01*
X597790Y1174670D01*
Y1175330D01*
X597920Y1176000D01*
X598170Y1176580D01*
X598550Y1177080D01*
X598990Y1177420D01*
X599500Y1177500D01*
X600010Y1177420D01*
X600450Y1177080D01*
X600830Y1176580D01*
X601080Y1176000D01*
X601210Y1175330D01*
Y1174670D01*
X601080Y1174000D01*
X600830Y1173420D01*
X600450Y1172920D01*
X600010Y1172580D01*
X599500Y1172500D01*
G01X604600Y1177500D02*
Y1172500D01*
G01X603140Y1177500D02*
X606060D01*
G01X609700D02*
Y1172500D01*
G01X608240Y1177500D02*
X611160D01*
G01X614800Y1172500D02*
X614290Y1172580D01*
X613850Y1172920D01*
X613470Y1173420D01*
X613220Y1174000D01*
X613090Y1174670D01*
Y1175330D01*
X613220Y1176000D01*
X613470Y1176580D01*
X613850Y1177080D01*
X614290Y1177420D01*
X614800Y1177500D01*
X615310Y1177420D01*
X615750Y1177080D01*
X616130Y1176580D01*
X616380Y1176000D01*
X616510Y1175330D01*
Y1174670D01*
X616380Y1174000D01*
X616130Y1173420D01*
X615750Y1172920D01*
X615310Y1172580D01*
X614800Y1172500D01*
G01X618250D02*
Y1177500D01*
X619900Y1173330D01*
X621550Y1177500D01*
Y1172500D01*
G54D11*
X662500Y1315000D03*
X665500Y1345000D03*
X747600Y1284000D03*
X737600D03*
X727600D03*
G54D21*
G01X669290Y1222500D02*
X673000D01*
G01X669340Y1220920D02*
X673000Y1222500D01*
G01Y1218790D02*
Y1222500D01*
G01D02*
Y1226210D01*
G01Y1222500D02*
X676710D01*
G01X698500Y1194790D02*
Y1198500D01*
G01D02*
Y1202210D01*
G01X694790Y1198500D02*
X698500D01*
G01D02*
X702210D01*
G01X719000Y1180790D02*
Y1184500D01*
G01D02*
Y1188210D01*
G01X715290Y1184500D02*
X719000D01*
G01D02*
X722710D01*
G01X727600Y1284000D02*
Y1289210D01*
G01X722390Y1284000D02*
X727600D01*
G01X737500Y1351290D02*
Y1355000D01*
G01D02*
Y1358710D01*
G01X733790Y1355000D02*
X737500D01*
G01D02*
X741210D01*
G01X792500Y1311290D02*
Y1315000D01*
G01D02*
Y1318710D01*
G01X788790Y1315000D02*
X792500D01*
G01D02*
X796210D01*
G01X825000Y1243540D02*
Y1247500D01*
G01D02*
Y1251460D01*
G01X821040Y1247500D02*
X825000D01*
G01D02*
X828960D01*
G54D12*
X673000Y1222500D03*
Y1212500D03*
X698500Y1198500D03*
Y1208500D03*
X719000Y1223500D03*
X717500Y1335000D03*
Y1325000D03*
X734500Y1242000D03*
Y1252000D03*
X752500Y1312500D03*
X747500Y1307500D03*
X737500Y1325000D03*
Y1335000D03*
Y1345000D03*
X776000Y1225000D03*
Y1235000D03*
X757500Y1307500D03*
X767500Y1325000D03*
Y1335000D03*
Y1345000D03*
Y1355000D03*
X792500Y1315000D03*
Y1325000D03*
G54D22*
G01X673000Y1212500D02*
X679000Y1218500D01*
X697500D01*
X721000Y1242000D01*
G01X674400Y1297000D02*
X674250Y1297150D01*
Y1336250D01*
X665500Y1345000D01*
G01X707500Y1243000D02*
X717500Y1253000D01*
Y1316500D01*
G01X747500Y1307500D02*
X740500D01*
X728000Y1295000D01*
G01X767500Y1345000D02*
X730500Y1308000D01*
G01X767500Y1355000D02*
X737500Y1325000D01*
G54D13*
X690000Y1236000D03*
Y1276000D03*
Y1307500D03*
Y1347500D03*
X707500Y1243000D03*
Y1283000D03*
X785000Y1247500D03*
X825000D03*
G54D14*
X674400Y1277000D03*
Y1297000D03*
G54D15*
X719000Y1184500D03*
X737500Y1355000D03*
G54D16*
X721000Y1242000D03*
X717500Y1316500D03*
X730500Y1308000D03*
G54D17*
X757500Y1225000D03*
Y1265000D03*
G54D18*
X780500Y1345000D03*
X785000Y1297500D03*
G54D19*
Y1261500D03*
X816500Y1345000D03*
M02*
