M48
INCH,LZ
T01C.06
T02C.052
T03C.042
T04C.038
T05C.035
T06C.028
T07C.02
T08C.125
;LEADER: 12 
;HEADER: 
;CODE  : ASCII 
;FILE  : NCdrill-1-2.drl for board Desulfator.brd ... layers TOP and BOTTOM
;T01 Holesize 1. = 60.000000 Tolerance = +0.000000/-0.000000 PLATED MILS Quantity = 5
;T02 Holesize 2. = 52.000000 Tolerance = +0.000000/-0.000000 PLATED MILS Quantity = 2
;T03 Holesize 3. = 42.000000 Tolerance = +0.000000/-0.000000 PLATED MILS Quantity = 8
;T04 Holesize 4. = 38.000000 Tolerance = +0.000000/-0.000000 PLATED MILS Quantity = 22
;T05 Holesize 5. = 35.000000 Tolerance = +0.000000/-0.000000 PLATED MILS Quantity = 3
;T06 Holesize 6. = 28.000000 Tolerance = +0.000000/-0.000000 PLATED MILS Quantity = 6
;T07 Holesize 7. = 20.000000 Tolerance = +0.000000/-0.000000 PLATED MILS Quantity = 3
;T08 Holesize 8. = 125.000000 Tolerance = +0.000000/-0.000000 NON_PLATED MILS Quantity = 4
%
G90
T01
X06655Y1345
X06625Y1315
X07476Y1284
R02X-001
T02
X07575Y1265
X07575Y1225
T03
X069Y1236
X069Y1276
X07075Y1243
X07075Y1283
X069Y13075
X069Y13475
X0785Y12475
X0825Y12475
T04
X06985Y12085
X06985Y11985
X0673Y12125
X0673Y12225
X0719Y11845
X0719Y12235
X07345Y1252
X07345Y1242
X07175Y1325
X07175Y1335
X07375Y1355
R03Y-001
X07675Y1325
R03Y001
X07925Y1325
X07925Y1315
X0776Y1235
X0776Y1225
T05
X07575Y13075
X07525Y13125
X07475Y13075
T06
X06744Y1277
X06744Y1297
X07805Y1345
X08165Y1345
X0785Y12975
X0785Y12615
T07
X0721Y1242
X07305Y1308
X07175Y13165
T08
X06625Y11825
X06625Y13625
X08425Y11825
X08425Y13625
M30
