*
%LPD*%
%LNdesulfator_v1SST*%
%FSLAX25Y25*%
%MOIN*%
%AD*%
%AD*%
%ADD20C,0.005*%
G54D20*
%SRX1Y1I0.0J0.0*%
G1X23799Y67217D2*
G1X23799Y72217D1*
G1X25389Y72217D1*
G1X25889Y71967D1*
G1X26209Y71637D1*
G1X26339Y70967D1*
G1X26209Y70297D1*
G1X25829Y69887D1*
G1X25389Y69637D1*
G1X23799Y69637D1*
G1X25389Y69637D2*
G1X26339Y67217D1*
G1X30169Y67217D2*
G1X30169Y72217D1*
G1X29409Y71217D1*
G1X29409Y67217D2*
G1X30929Y67217D1*
G1X61299Y94717D2*
G1X61299Y99717D1*
G1X62889Y99717D1*
G1X63389Y99467D1*
G1X63709Y99137D1*
G1X63839Y98467D1*
G1X63709Y97797D1*
G1X63329Y97387D1*
G1X62889Y97137D1*
G1X61299Y97137D1*
G1X62889Y97137D2*
G1X63839Y94717D1*
G1X66469Y98887D2*
G1X66849Y99387D1*
G1X67289Y99637D1*
G1X67799Y99717D1*
G1X68429Y99547D1*
G1X68869Y99137D1*
G1X68999Y98637D1*
G1X68939Y98137D1*
G1X68679Y97717D1*
G1X67419Y96887D1*
G1X66849Y96297D1*
G1X66469Y95467D1*
G1X66339Y94717D1*
G1X68999Y94717D1*
G1X41999Y159217D2*
G1X41999Y164217D1*
G1X43589Y164217D1*
G1X44089Y163967D1*
G1X44409Y163637D1*
G1X44539Y162967D1*
G1X44409Y162297D1*
G1X44029Y161887D1*
G1X43589Y161637D1*
G1X41999Y161637D1*
G1X43589Y161637D2*
G1X44539Y159217D1*
G1X46979Y160217D2*
G1X47359Y159637D1*
G1X47859Y159297D1*
G1X48429Y159217D1*
G1X48939Y159297D1*
G1X49449Y159717D1*
G1X49759Y160217D1*
G1X49829Y160717D1*
G1X49699Y161297D1*
G1X49259Y161717D1*
G1X48809Y161887D1*
G1X48239Y161887D1*
G1X48809Y161887D2*
G1X49189Y162137D1*
G1X49509Y162547D1*
G1X49639Y163047D1*
G1X49509Y163547D1*
G1X49189Y163967D1*
G1X48619Y164217D1*
G1X48049Y164137D1*
G1X47479Y163797D1*
G1X88129Y19717D2*
G1X88129Y24717D1*
G1X89389Y24717D1*
G1X89899Y24467D1*
G1X90279Y24137D1*
G1X90599Y23637D1*
G1X90849Y23047D1*
G1X90909Y22217D1*
G1X90849Y21387D1*
G1X90599Y20797D1*
G1X90279Y20297D1*
G1X89899Y19967D1*
G1X89389Y19717D1*
G1X88129Y19717D1*
G1X93669Y21967D2*
G1X95699Y21967D1*
G1X95509Y22547D1*
G1X95189Y22887D1*
G1X94749Y23047D1*
G1X94299Y22967D1*
G1X93919Y22717D1*
G1X93669Y22137D1*
G1X93539Y21637D1*
G1X93539Y21137D1*
G1X93669Y20637D1*
G1X93989Y20137D1*
G1X94369Y19797D1*
G1X94809Y19717D1*
G1X95249Y19887D1*
G1X95699Y20387D1*
G1X98769Y20297D2*
G1X99089Y19967D1*
G1X99529Y19717D1*
G1X99909Y19717D1*
G1X100289Y19887D1*
G1X100539Y20137D1*
G1X100669Y20467D1*
G1X100609Y20967D1*
G1X100349Y21217D1*
G1X99209Y21717D1*
G1X98959Y22297D1*
G1X99089Y22717D1*
G1X99339Y22967D1*
G1X99719Y23047D1*
G1X100099Y22967D1*
G1X100479Y22717D1*
G1X103739Y23047D2*
G1X103739Y20717D1*
G1X103999Y20137D1*
G1X104379Y19797D1*
G1X104819Y19717D1*
G1X105259Y19797D1*
G1X105639Y20137D1*
G1X105899Y20717D1*
G1X105899Y19717D2*
G1X105899Y23047D1*
G1X109919Y19717D2*
G1X109919Y24717D1*
G1X114639Y19717D2*
G1X114639Y23967D1*
G1X114769Y24387D1*
G1X115019Y24637D1*
G1X115399Y24717D1*
G1X115779Y24547D1*
G1X115969Y24137D1*
G1X115209Y22717D2*
G1X113939Y22717D1*
G1X121259Y19717D2*
G1X121259Y23047D1*
G1X121259Y22467D2*
G1X121009Y22797D1*
G1X120629Y22967D1*
G1X120179Y23047D1*
G1X119739Y22887D1*
G1X119359Y22547D1*
G1X119109Y22047D1*
G1X118979Y21387D1*
G1X119109Y20717D1*
G1X119359Y20217D1*
G1X119739Y19887D1*
G1X120179Y19717D1*
G1X120629Y19797D1*
G1X121009Y20047D1*
G1X121259Y20387D1*
G1X125219Y24717D2*
G1X125219Y19717D1*
G1X124329Y23047D2*
G1X126109Y23047D1*
G1X130319Y19717D2*
G1X129939Y19797D1*
G1X129559Y20137D1*
G1X129309Y20717D1*
G1X129179Y21387D1*
G1X129309Y22047D1*
G1X129559Y22637D1*
G1X129939Y22967D1*
G1X130319Y23047D1*
G1X130699Y22967D1*
G1X131079Y22637D1*
G1X131329Y22047D1*
G1X131399Y21387D1*
G1X131329Y20717D1*
G1X131079Y20137D1*
G1X130699Y19797D1*
G1X130319Y19717D1*
G1X134529Y19717D2*
G1X134529Y23047D1*
G1X134529Y22387D2*
G1X134849Y22717D1*
G1X135169Y22967D1*
G1X135609Y23047D1*
G1X135929Y22967D1*
G1X136309Y22717D1*
G1X144479Y23047D2*
G1X145619Y19717D1*
G1X146759Y23047D1*
G1X150719Y19717D2*
G1X150719Y24717D1*
G1X149959Y23717D1*
G1X149959Y19717D2*
G1X151479Y19717D1*
G1X155819Y19547D2*
G1X155689Y19637D1*
G1X155689Y19797D1*
G1X155819Y19887D1*
G1X155949Y19797D1*
G1X155949Y19637D1*
G1X155819Y19547D1*
G1X160919Y24717D2*
G1X160409Y24547D1*
G1X160029Y24137D1*
G1X159779Y23637D1*
G1X159589Y22967D1*
G1X159529Y22217D1*
G1X159589Y21467D1*
G1X159779Y20797D1*
G1X160029Y20297D1*
G1X160409Y19887D1*
G1X160919Y19717D1*
G1X161429Y19887D1*
G1X161809Y20297D1*
G1X162059Y20797D1*
G1X162249Y21467D1*
G1X162309Y22217D1*
G1X162249Y22967D1*
G1X162059Y23637D1*
G1X161809Y24137D1*
G1X161429Y24547D1*
G1X160919Y24717D1*
G1X90749Y12217D2*
G1X90749Y17217D1*
G1X92269Y17217D1*
G1X92779Y16967D1*
G1X93159Y16387D1*
G1X93289Y15717D1*
G1X93159Y15047D1*
G1X92839Y14547D1*
G1X92269Y14297D1*
G1X90749Y14297D1*
G1X98259Y12217D2*
G1X98259Y15547D1*
G1X98259Y14967D2*
G1X98009Y15297D1*
G1X97629Y15467D1*
G1X97179Y15547D1*
G1X96739Y15387D1*
G1X96359Y15047D1*
G1X96109Y14547D1*
G1X95979Y13887D1*
G1X96109Y13217D1*
G1X96359Y12717D1*
G1X96739Y12387D1*
G1X97179Y12217D1*
G1X97629Y12297D1*
G1X98009Y12547D1*
G1X98259Y12887D1*
G1X102219Y17217D2*
G1X102219Y12217D1*
G1X101329Y15547D2*
G1X103109Y15547D1*
G1X106429Y12217D2*
G1X106429Y15547D1*
G1X106429Y14887D2*
G1X106749Y15217D1*
G1X107069Y15467D1*
G1X107509Y15547D1*
G1X107829Y15467D1*
G1X108209Y15217D1*
G1X112419Y15547D2*
G1X112419Y12217D1*
G1X112419Y16887D2*
G1X112289Y16967D1*
G1X112289Y17137D1*
G1X112419Y17217D1*
G1X112549Y17137D1*
G1X112549Y16967D1*
G1X112419Y16887D1*
G1X118529Y15137D2*
G1X118089Y15467D1*
G1X117709Y15547D1*
G1X117199Y15387D1*
G1X116819Y15047D1*
G1X116569Y14467D1*
G1X116509Y13887D1*
G1X116569Y13297D1*
G1X116819Y12797D1*
G1X117199Y12387D1*
G1X117709Y12217D1*
G1X118149Y12387D1*
G1X118529Y12717D1*
G1X121539Y12217D2*
G1X121539Y17217D1*
G1X123569Y15547D2*
G1X121539Y13637D1*
G1X122369Y14387D2*
G1X123699Y12217D1*
G1X131489Y12887D2*
G1X131999Y12467D1*
G1X132569Y12217D1*
G1X133069Y12217D1*
G1X133579Y12467D1*
G1X133959Y12887D1*
G1X134149Y13467D1*
G1X134019Y14047D1*
G1X133709Y14547D1*
G1X133139Y14887D1*
G1X132379Y15047D1*
G1X131929Y15387D1*
G1X131739Y15967D1*
G1X131869Y16547D1*
G1X132189Y16967D1*
G1X132629Y17217D1*
G1X133069Y17217D1*
G1X133519Y17047D1*
G1X133899Y16637D1*
G1X136839Y12217D2*
G1X136839Y17217D1*
G1X136839Y14797D2*
G1X137159Y15217D1*
G1X137479Y15467D1*
G1X137979Y15547D1*
G1X138359Y15467D1*
G1X138809Y15137D1*
G1X138999Y14637D1*
G1X138999Y12217D1*
G1X141689Y10717D2*
G1X142069Y10547D1*
G1X142579Y10717D1*
G1X142889Y11047D1*
G1X143149Y11467D1*
G1X143529Y12797D1*
G1X144349Y15547D1*
G1X142319Y15547D2*
G1X143529Y12797D1*
G1X146979Y15547D2*
G1X148119Y12217D1*
G1X149259Y15547D1*
G1X152269Y14467D2*
G1X154299Y14467D1*
G1X154109Y15047D1*
G1X153789Y15387D1*
G1X153349Y15547D1*
G1X152899Y15467D1*
G1X152519Y15217D1*
G1X152269Y14637D1*
G1X152139Y14137D1*
G1X152139Y13637D1*
G1X152269Y13137D1*
G1X152589Y12637D1*
G1X152969Y12297D1*
G1X153409Y12217D1*
G1X153849Y12387D1*
G1X154299Y12887D1*
G1X157429Y12217D2*
G1X157429Y15547D1*
G1X157429Y14887D2*
G1X157749Y15217D1*
G1X158069Y15467D1*
G1X158509Y15547D1*
G1X158829Y15467D1*
G1X159209Y15217D1*
G1X162469Y12797D2*
G1X162789Y12467D1*
G1X163229Y12217D1*
G1X163609Y12217D1*
G1X163989Y12387D1*
G1X164239Y12637D1*
G1X164369Y12967D1*
G1X164309Y13467D1*
G1X164049Y13717D1*
G1X162909Y14217D1*
G1X162659Y14797D1*
G1X162789Y15217D1*
G1X163039Y15467D1*
G1X163419Y15547D1*
G1X163799Y15467D1*
G1X164179Y15217D1*
G1X78129Y34717D2*
G1X78129Y39717D1*
G1X79389Y39717D1*
G1X79899Y39467D1*
G1X80279Y39137D1*
G1X80599Y38637D1*
G1X80849Y38047D1*
G1X80909Y37217D1*
G1X80849Y36387D1*
G1X80599Y35797D1*
G1X80279Y35297D1*
G1X79899Y34967D1*
G1X79389Y34717D1*
G1X78129Y34717D1*
G1X84619Y34717D2*
G1X84619Y39717D1*
G1X83859Y38717D1*
G1X83859Y34717D2*
G1X85379Y34717D1*
G1X153799Y84717D2*
G1X153799Y89717D1*
G1X155389Y89717D1*
G1X155889Y89467D1*
G1X156209Y89137D1*
G1X156339Y88467D1*
G1X156209Y87797D1*
G1X155829Y87387D1*
G1X155389Y87137D1*
G1X153799Y87137D1*
G1X155389Y87137D2*
G1X156339Y84717D1*
G1X160929Y84717D2*
G1X160929Y89717D1*
G1X158589Y86137D1*
G1X161749Y86137D1*
G1X140629Y112217D2*
G1X140629Y117217D1*
G1X141889Y117217D1*
G1X142399Y116967D1*
G1X142779Y116637D1*
G1X143099Y116137D1*
G1X143349Y115547D1*
G1X143409Y114717D1*
G1X143349Y113887D1*
G1X143099Y113297D1*
G1X142779Y112797D1*
G1X142399Y112467D1*
G1X141889Y112217D1*
G1X140629Y112217D1*
G1X147879Y112217D2*
G1X147879Y117217D1*
G1X145539Y113637D1*
G1X148699Y113637D1*
G1X158959Y142797D2*
G1X158579Y143047D1*
G1X158139Y143217D1*
G1X157629Y143217D1*
G1X157059Y142967D1*
G1X156619Y142547D1*
G1X156299Y142047D1*
G1X156049Y141217D1*
G1X155989Y140467D1*
G1X156109Y139717D1*
G1X156299Y139217D1*
G1X156679Y138717D1*
G1X157129Y138387D1*
G1X157569Y138217D1*
G1X158009Y138217D1*
G1X158459Y138387D1*
G1X158839Y138637D1*
G1X159149Y138967D1*
G1X163429Y138217D2*
G1X163429Y143217D1*
G1X161089Y139637D1*
G1X164249Y139637D1*
G1X155629Y179717D2*
G1X155629Y184717D1*
G1X156889Y184717D1*
G1X157399Y184467D1*
G1X157779Y184137D1*
G1X158099Y183637D1*
G1X158349Y183047D1*
G1X158409Y182217D1*
G1X158349Y181387D1*
G1X158099Y180797D1*
G1X157779Y180297D1*
G1X157399Y179967D1*
G1X156889Y179717D1*
G1X155629Y179717D1*
G1X160729Y180717D2*
G1X161109Y180137D1*
G1X161609Y179797D1*
G1X162179Y179717D1*
G1X162689Y179797D1*
G1X163199Y180217D1*
G1X163509Y180717D1*
G1X163579Y181217D1*
G1X163449Y181797D1*
G1X163009Y182217D1*
G1X162559Y182387D1*
G1X161989Y182387D1*
G1X162559Y182387D2*
G1X162939Y182637D1*
G1X163259Y183047D1*
G1X163389Y183547D1*
G1X163259Y184047D1*
G1X162939Y184467D1*
G1X162369Y184717D1*
G1X161799Y184637D1*
G1X161229Y184297D1*
M2*
